<svg width="60" height="60" viewBox="0 0 60 60" fill="none" xmlns="http://www.w3.org/2000/svg">
<path d="M42.5 42.5C39.7386 42.5 37.5 44.7386 37.5 47.5C37.5 50.2614 39.7386 52.5 42.5 52.5C45.2614 52.5 47.5 50.2614 47.5 47.5C47.5 44.7386 45.2614 42.5 42.5 42.5ZM42.5 42.5H18.4182C17.1741 42.5 16.1193 41.5852 15.9434 40.3536L15.1786 35M5 7.5H11.25L11.9643 12.5M11.9643 12.5H12.5H52.5L45 35H16.25H15.1786M11.9643 12.5L15.1786 35M27.5 47.5C27.5 50.2614 25.2614 52.5 22.5 52.5C19.7386 52.5 17.5 50.2614 17.5 47.5C17.5 44.7386 19.7386 42.5 22.5 42.5C25.2614 42.5 27.5 44.7386 27.5 47.5Z" stroke="#181818" stroke-width="1.5" stroke-linecap="round" stroke-linejoin="round"/>
</svg>
